# xmcd
#
# Track frame offsets:
#	150
#	18125
#	26785
#	39450
#
# Disc length: 763 seconds
#
# Revision: 3
# Processed by: cddbd v1.5.2PL0 Copyright (c) Steve Scherf et al.
# Submitted via: audiograbber 1.83.01
#
DISCID=2502f904
DTITLE=Fettes Brot - An Tagen wie diesen
DYEAR=2005
DGENRE=Deutsch Hip-Hop
TTITLE0=An Tagen wie diesen (mit Finkenauer)
TTITLE1=Was in der Zeitung steht
TTITLE2=Big Bad Boris (Lauterbach Remake)
TTITLE3=An Tagen wie diesen (Absturz City RMX feat. O.O.D)
EXTD=
EXTT0=
EXTT1=
EXTT2=
EXTT3=
PLAYORDER=
